<svg xmlns="http://www.w3.org/2000/svg" xmlns:xlink="http://www.w3.org/1999/xlink" width="1080" zoomAndPan="magnify" viewBox="0 0 810 809.999993" height="1080" preserveAspectRatio="xMidYMid meet" version="1.0"><path fill="#012169" d="M 0.0234375 162.003906 L 810.011719 162.003906 L 810.011719 648 L 0.0234375 648 Z M 0.0234375 162.003906 " fill-opacity="1" fill-rule="nonzero"/><path fill="#ffffff" d="M 810.011719 162.003906 L 810.011719 231.585938 L 655.816406 323.242188 L 655.8125 323.242188 L 598.957031 357.035156 L 518.261719 405 L 502.769531 414.207031 L 498.425781 416.792969 L 486.777344 423.71875 L 472.707031 432.074219 L 468.367188 434.660156 L 468.363281 434.660156 L 454.921875 442.652344 L 452.984375 443.804688 L 450.574219 445.238281 L 437.566406 452.964844 L 424.855469 460.519531 L 420.511719 463.101562 L 405.019531 472.3125 L 380.714844 486.757812 L 357.054688 500.824219 L 323.253906 520.914062 L 109.457031 647.996094 L 0.0234375 647.996094 L 0.0234375 578.421875 L 154.222656 486.757812 L 211.078125 452.964844 L 291.773438 405 L 307.265625 395.789062 L 307.269531 395.789062 L 311.613281 393.207031 L 323.253906 386.285156 L 337.332031 377.921875 L 341.671875 375.339844 L 341.675781 375.339844 L 355.117188 367.347656 L 357.054688 366.195312 L 359.460938 364.765625 L 372.464844 357.035156 L 385.179688 349.480469 L 389.527344 346.894531 L 405.019531 337.6875 L 429.324219 323.242188 L 452.984375 309.175781 L 486.777344 289.089844 L 700.582031 162.003906 Z M 810.011719 162.003906 " fill-opacity="1" fill-rule="nonzero"/><path fill="#c8102e" d="M 800.382812 162.003906 L 529.125 323.242188 L 472.265625 357.035156 L 454.917969 367.347656 L 439.429688 376.554688 L 433.007812 380.375 L 407.285156 395.660156 L 405.019531 397.007812 L 391.578125 405 L 385.160156 408.816406 L 357.167969 425.453125 L 341.675781 434.660156 L 310.882812 452.964844 L 304.457031 456.78125 L 254.027344 486.757812 L 185.210938 486.757812 L 242.0625 452.964844 L 307.265625 414.207031 L 320.984375 406.050781 L 322.753906 405 L 322.757812 405 L 329.183594 401.179688 L 354.871094 385.910156 L 357.164062 384.546875 L 370.609375 376.554688 L 402.75 357.457031 L 405.023438 356.101562 L 420.511719 346.894531 L 452.984375 327.59375 L 466.730469 319.421875 L 484.511719 308.855469 L 486.777344 307.507812 L 731.5625 162.003906 Z M 800.382812 162.003906 " fill-opacity="1" fill-rule="nonzero"/><path fill="#c8102e" d="M 624.828125 323.242188 L 567.96875 357.035156 L 502.769531 395.789062 L 500.695312 397.023438 L 489.050781 403.949219 L 487.28125 405 L 455.269531 424.027344 L 455.140625 424.101562 L 452.875 425.449219 L 439.429688 433.441406 L 405.019531 453.894531 L 389.527344 463.101562 L 357.054688 482.40625 L 323.253906 502.5 L 78.476562 647.996094 L 9.65625 647.996094 L 280.914062 486.757812 L 337.765625 452.964844 L 344.191406 449.148438 L 354.78125 442.847656 L 355.117188 442.652344 L 357.199219 441.417969 L 370.609375 433.441406 L 378.078125 429 L 378.082031 429 L 405.015625 412.988281 L 418.460938 405 L 450.648438 385.867188 L 450.738281 385.816406 L 452.875 384.546875 L 468.363281 375.339844 L 499.15625 357.035156 L 556.007812 323.242188 Z M 624.828125 323.242188 " fill-opacity="1" fill-rule="nonzero"/><path fill="#ffffff" d="M 810.011719 578.417969 L 810.011719 647.996094 L 700.582031 647.996094 L 486.777344 520.914062 L 452.984375 500.824219 L 429.324219 486.757812 L 405.019531 472.3125 L 389.527344 463.101562 L 385.179688 460.519531 L 372.46875 452.964844 L 359.460938 445.238281 L 357.054688 443.804688 L 355.117188 442.652344 L 341.675781 434.660156 L 337.332031 432.078125 L 323.253906 423.714844 L 311.613281 416.792969 L 307.265625 414.207031 L 291.773438 405 L 211.082031 357.035156 L 154.226562 323.242188 L 154.222656 323.242188 L 0.0234375 231.582031 L 0.0234375 162.003906 L 109.453125 162.003906 L 323.253906 289.089844 L 357.054688 309.175781 L 380.710938 323.242188 L 405.019531 337.6875 L 420.511719 346.894531 L 424.855469 349.480469 L 437.570312 357.035156 L 450.574219 364.765625 L 452.984375 366.195312 L 454.917969 367.347656 L 468.363281 375.339844 L 472.707031 377.921875 L 486.777344 386.285156 L 498.425781 393.207031 L 502.769531 395.789062 L 518.261719 405 L 598.957031 452.964844 L 655.816406 486.757812 Z M 810.011719 578.417969 " fill-opacity="1" fill-rule="nonzero"/><path fill="#c8102e" d="M 810.011719 596.835938 L 810.011719 637.742188 L 556.011719 486.757812 L 499.15625 452.964844 L 470.441406 435.894531 L 468.367188 434.660156 L 468.363281 434.660156 L 452.875 425.449219 L 424.882812 408.816406 L 418.460938 405 L 405.019531 397.007812 L 402.746094 395.660156 L 370.609375 376.554688 L 357.191406 368.582031 L 355.117188 367.347656 L 354.78125 367.148438 L 337.765625 357.035156 L 287.332031 327.054688 L 280.914062 323.242188 L 323.253906 323.242188 L 323.253906 307.5 L 357.054688 327.59375 L 389.527344 346.894531 L 400.167969 353.214844 L 405.023438 356.101562 L 407.289062 357.457031 L 439.429688 376.554688 L 452.875 384.546875 L 455.269531 385.972656 L 487.28125 405 L 489.046875 406.050781 L 502.769531 414.207031 L 561.550781 449.144531 L 567.980469 452.964844 L 624.832031 486.757812 Z M 810.011719 596.835938 " fill-opacity="1" fill-rule="nonzero"/><path fill="#c8102e" d="M 529.125 486.757812 L 486.777344 486.757812 L 486.777344 502.496094 L 484.511719 501.148438 L 452.984375 482.40625 L 422.589844 464.335938 L 420.511719 463.101562 L 405.019531 453.894531 L 402.75 452.546875 L 378 437.835938 L 377.027344 437.257812 L 370.609375 433.441406 L 357.167969 425.453125 L 354.863281 424.085938 L 354.765625 424.027344 L 322.757812 405 L 322.753906 405 L 307.269531 395.789062 L 307.265625 395.789062 L 242.066406 357.035156 L 191.625 327.054688 L 185.210938 323.242188 L 0.0234375 213.164062 L 0.0234375 172.253906 L 254.035156 323.242188 L 304.460938 353.214844 L 310.886719 357.035156 L 325.523438 365.738281 L 339.597656 374.105469 L 341.671875 375.339844 L 341.675781 375.339844 L 357.164062 384.546875 L 359.300781 385.816406 L 359.4375 385.898438 L 391.578125 405 L 405.015625 412.988281 L 407.285156 414.339844 L 433.007812 429.625 L 439.429688 433.441406 L 452.847656 441.417969 L 454.921875 442.652344 L 455.25 442.847656 L 465.851562 449.148438 L 472.273438 452.964844 Z M 529.125 486.757812 " fill-opacity="1" fill-rule="nonzero"/><path fill="#ffffff" d="M 810.015625 323.242188 L 810.015625 486.757812 L 486.777344 486.757812 L 486.777344 647.996094 L 323.253906 647.996094 L 323.253906 486.757812 L 0.0234375 486.757812 L 0.0234375 323.242188 L 323.253906 323.242188 L 323.253906 162.003906 L 486.777344 162.003906 L 486.777344 323.242188 Z M 810.015625 323.242188 " fill-opacity="1" fill-rule="nonzero"/><path fill="#c8102e" d="M 810.011719 357.035156 L 452.984375 357.035156 L 452.984375 162.003906 L 357.054688 162.003906 L 357.054688 357.035156 L 0.0234375 357.035156 L 0.0234375 452.964844 L 357.054688 452.964844 L 357.054688 647.996094 L 452.984375 647.996094 L 452.984375 452.964844 L 810.011719 452.964844 Z M 810.011719 357.035156 " fill-opacity="1" fill-rule="nonzero"/></svg>