<svg xmlns="http://www.w3.org/2000/svg" xmlns:xlink="http://www.w3.org/1999/xlink" width="1080" zoomAndPan="magnify" viewBox="0 0 810 809.999993" height="1080" preserveAspectRatio="xMidYMid meet" version="1.0"><defs><clipPath id="e741e2d5cf"><path d="M 1 135.675781 L 809 135.675781 L 809 674.175781 L 1 674.175781 Z M 1 135.675781 " clip-rule="nonzero"/></clipPath><clipPath id="a6d55a2b3d"><path d="M 410 135.675781 L 809 135.675781 L 809 178 L 410 178 Z M 410 135.675781 " clip-rule="nonzero"/></clipPath><clipPath id="ac81b0d595"><path d="M 1 632 L 809 632 L 809 674.175781 L 1 674.175781 Z M 1 632 " clip-rule="nonzero"/></clipPath><clipPath id="414f44c171"><path d="M 1 135.675781 L 412 135.675781 L 412 426 L 1 426 Z M 1 135.675781 " clip-rule="nonzero"/></clipPath></defs><g clip-path="url(#e741e2d5cf)"><path fill="#ffffff" d="M 808.910156 674.246094 L 1.050781 674.246094 L 1.050781 135.75 L 808.910156 135.75 L 808.910156 674.246094 " fill-opacity="1" fill-rule="nonzero"/></g><path fill="#d21c31" d="M 808.910156 508.601562 L 1.050781 508.601562 L 1.050781 467.148438 L 808.910156 467.148438 L 808.910156 508.601562 " fill-opacity="1" fill-rule="nonzero"/><path fill="#d21c31" d="M 808.910156 425.878906 L 410.3125 425.878906 L 410.3125 384.253906 L 808.910156 384.253906 L 808.910156 425.878906 " fill-opacity="1" fill-rule="nonzero"/><path fill="#d21c31" d="M 808.910156 342.867188 L 410.3125 342.867188 L 410.3125 301.242188 L 808.910156 301.242188 L 808.910156 342.867188 " fill-opacity="1" fill-rule="nonzero"/><path fill="#d21c31" d="M 808.910156 260.152344 L 410.3125 260.152344 L 410.3125 218.527344 L 808.910156 218.527344 L 808.910156 260.152344 " fill-opacity="1" fill-rule="nonzero"/><g clip-path="url(#a6d55a2b3d)"><path fill="#d21c31" d="M 808.910156 177.199219 L 410.363281 177.199219 L 410.363281 135.75 L 808.910156 135.75 L 808.910156 177.199219 " fill-opacity="1" fill-rule="nonzero"/></g><path fill="#d21c31" d="M 808.910156 591.441406 L 1.050781 591.441406 L 1.050781 549.988281 L 808.910156 549.988281 L 808.910156 591.441406 " fill-opacity="1" fill-rule="nonzero"/><g clip-path="url(#ac81b0d595)"><path fill="#d21c31" d="M 808.910156 674.246094 L 1.050781 674.246094 L 1.050781 632.792969 L 808.910156 632.792969 L 808.910156 674.246094 " fill-opacity="1" fill-rule="nonzero"/></g><g clip-path="url(#414f44c171)"><path fill="#363570" d="M 411.328125 425.914062 L 1.050781 425.914062 L 1.050781 135.75 L 411.328125 135.75 L 411.328125 425.914062 " fill-opacity="1" fill-rule="nonzero"/></g><path fill="#ffffff" d="M 36.089844 147.308594 L 39.917969 159.085938 L 52.300781 159.085938 L 42.28125 166.363281 L 46.109375 178.140625 L 36.089844 170.855469 L 26.070312 178.140625 L 29.898438 166.363281 L 19.878906 159.085938 L 32.261719 159.085938 L 36.089844 147.308594 " fill-opacity="1" fill-rule="nonzero"/><path fill="#ffffff" d="M 103.902344 147.308594 L 107.726562 159.085938 L 120.113281 159.085938 L 110.09375 166.363281 L 113.921875 178.140625 L 103.902344 170.855469 L 93.882812 178.140625 L 97.710938 166.363281 L 87.691406 159.085938 L 100.074219 159.085938 L 103.902344 147.308594 " fill-opacity="1" fill-rule="nonzero"/><path fill="#ffffff" d="M 171.714844 147.308594 L 175.539062 159.085938 L 187.925781 159.085938 L 177.90625 166.363281 L 181.734375 178.140625 L 171.714844 170.855469 L 161.695312 178.140625 L 165.519531 166.363281 L 155.5 159.085938 L 167.886719 159.085938 L 171.714844 147.308594 " fill-opacity="1" fill-rule="nonzero"/><path fill="#ffffff" d="M 239.523438 147.308594 L 243.351562 159.085938 L 255.738281 159.085938 L 245.71875 166.363281 L 249.542969 178.140625 L 239.523438 170.855469 L 229.503906 178.140625 L 233.332031 166.363281 L 223.3125 159.085938 L 235.699219 159.085938 L 239.523438 147.308594 " fill-opacity="1" fill-rule="nonzero"/><path fill="#ffffff" d="M 307.335938 147.308594 L 311.164062 159.085938 L 323.546875 159.085938 L 313.527344 166.363281 L 317.355469 178.140625 L 307.335938 170.855469 L 297.316406 178.140625 L 301.144531 166.363281 L 291.125 159.085938 L 303.507812 159.085938 L 307.335938 147.308594 " fill-opacity="1" fill-rule="nonzero"/><path fill="#ffffff" d="M 375.148438 147.308594 L 378.976562 159.085938 L 391.359375 159.085938 L 381.339844 166.363281 L 385.167969 178.140625 L 375.148438 170.855469 L 365.128906 178.140625 L 368.957031 166.363281 L 358.9375 159.085938 L 371.320312 159.085938 L 375.148438 147.308594 " fill-opacity="1" fill-rule="nonzero"/><path fill="#ffffff" d="M 70.039062 176.273438 L 73.863281 188.050781 L 86.25 188.050781 L 76.230469 195.335938 L 80.058594 207.109375 L 70.039062 199.828125 L 60.019531 207.109375 L 63.84375 195.335938 L 53.824219 188.050781 L 66.210938 188.050781 L 70.039062 176.273438 " fill-opacity="1" fill-rule="nonzero"/><path fill="#ffffff" d="M 137.847656 176.273438 L 141.675781 188.050781 L 154.0625 188.050781 L 144.042969 195.335938 L 147.867188 207.109375 L 137.847656 199.828125 L 127.828125 207.109375 L 131.65625 195.335938 L 121.636719 188.050781 L 134.023438 188.050781 L 137.847656 176.273438 " fill-opacity="1" fill-rule="nonzero"/><path fill="#ffffff" d="M 205.660156 176.273438 L 209.488281 188.050781 L 221.871094 188.050781 L 211.851562 195.335938 L 215.679688 207.109375 L 205.660156 199.828125 L 195.640625 207.109375 L 199.46875 195.335938 L 189.449219 188.050781 L 201.832031 188.050781 L 205.660156 176.273438 " fill-opacity="1" fill-rule="nonzero"/><path fill="#ffffff" d="M 273.472656 176.273438 L 277.300781 188.050781 L 289.683594 188.050781 L 279.664062 195.335938 L 283.492188 207.109375 L 273.472656 199.828125 L 263.453125 207.109375 L 267.28125 195.335938 L 257.261719 188.050781 L 269.644531 188.050781 L 273.472656 176.273438 " fill-opacity="1" fill-rule="nonzero"/><path fill="#ffffff" d="M 341.285156 176.273438 L 345.109375 188.050781 L 357.496094 188.050781 L 347.476562 195.335938 L 351.304688 207.109375 L 341.285156 199.828125 L 331.265625 207.109375 L 335.089844 195.335938 L 325.070312 188.050781 L 337.457031 188.050781 L 341.285156 176.273438 " fill-opacity="1" fill-rule="nonzero"/><path fill="#ffffff" d="M 70.039062 234.558594 L 73.863281 246.335938 L 86.25 246.335938 L 76.230469 253.613281 L 80.058594 265.390625 L 70.039062 258.113281 L 60.019531 265.390625 L 63.84375 253.613281 L 53.824219 246.335938 L 66.210938 246.335938 L 70.039062 234.558594 " fill-opacity="1" fill-rule="nonzero"/><path fill="#ffffff" d="M 137.847656 234.558594 L 141.675781 246.335938 L 154.0625 246.335938 L 144.042969 253.613281 L 147.867188 265.390625 L 137.847656 258.113281 L 127.828125 265.390625 L 131.65625 253.613281 L 121.636719 246.335938 L 134.023438 246.335938 L 137.847656 234.558594 " fill-opacity="1" fill-rule="nonzero"/><path fill="#ffffff" d="M 205.660156 234.558594 L 209.488281 246.335938 L 221.871094 246.335938 L 211.851562 253.613281 L 215.679688 265.390625 L 205.660156 258.113281 L 195.640625 265.390625 L 199.46875 253.613281 L 189.449219 246.335938 L 201.832031 246.335938 L 205.660156 234.558594 " fill-opacity="1" fill-rule="nonzero"/><path fill="#ffffff" d="M 273.472656 234.558594 L 277.300781 246.335938 L 289.683594 246.335938 L 279.664062 253.613281 L 283.492188 265.390625 L 273.472656 258.113281 L 263.453125 265.390625 L 267.28125 253.613281 L 257.261719 246.335938 L 269.644531 246.335938 L 273.472656 234.558594 " fill-opacity="1" fill-rule="nonzero"/><path fill="#ffffff" d="M 341.285156 234.558594 L 345.109375 246.335938 L 357.496094 246.335938 L 347.476562 253.613281 L 351.304688 265.390625 L 341.285156 258.113281 L 331.265625 265.390625 L 335.089844 253.613281 L 325.070312 246.335938 L 337.457031 246.335938 L 341.285156 234.558594 " fill-opacity="1" fill-rule="nonzero"/><path fill="#ffffff" d="M 70.039062 292.835938 L 73.863281 304.613281 L 86.25 304.613281 L 76.230469 311.890625 L 80.058594 323.667969 L 70.039062 316.390625 L 60.019531 323.667969 L 63.84375 311.890625 L 53.824219 304.613281 L 66.210938 304.613281 L 70.039062 292.835938 " fill-opacity="1" fill-rule="nonzero"/><path fill="#ffffff" d="M 137.847656 292.835938 L 141.675781 304.613281 L 154.0625 304.613281 L 144.042969 311.890625 L 147.867188 323.667969 L 137.847656 316.390625 L 127.828125 323.667969 L 131.65625 311.890625 L 121.636719 304.613281 L 134.023438 304.613281 L 137.847656 292.835938 " fill-opacity="1" fill-rule="nonzero"/><path fill="#ffffff" d="M 205.660156 292.835938 L 209.488281 304.613281 L 221.871094 304.613281 L 211.851562 311.890625 L 215.679688 323.667969 L 205.660156 316.390625 L 195.640625 323.667969 L 199.46875 311.890625 L 189.449219 304.613281 L 201.832031 304.613281 L 205.660156 292.835938 " fill-opacity="1" fill-rule="nonzero"/><path fill="#ffffff" d="M 273.472656 292.835938 L 277.300781 304.613281 L 289.683594 304.613281 L 279.664062 311.890625 L 283.492188 323.667969 L 273.472656 316.390625 L 263.453125 323.667969 L 267.28125 311.890625 L 257.261719 304.613281 L 269.644531 304.613281 L 273.472656 292.835938 " fill-opacity="1" fill-rule="nonzero"/><path fill="#ffffff" d="M 341.285156 292.835938 L 345.109375 304.613281 L 357.496094 304.613281 L 347.476562 311.890625 L 351.304688 323.667969 L 341.285156 316.390625 L 331.265625 323.667969 L 335.089844 311.890625 L 325.070312 304.613281 L 337.457031 304.613281 L 341.285156 292.835938 " fill-opacity="1" fill-rule="nonzero"/><path fill="#ffffff" d="M 70.039062 351.121094 L 73.863281 362.898438 L 86.25 362.898438 L 76.230469 370.175781 L 80.058594 381.953125 L 70.039062 374.675781 L 60.019531 381.953125 L 63.84375 370.175781 L 53.824219 362.898438 L 66.210938 362.898438 L 70.039062 351.121094 " fill-opacity="1" fill-rule="nonzero"/><path fill="#ffffff" d="M 137.847656 351.121094 L 141.675781 362.898438 L 154.0625 362.898438 L 144.042969 370.175781 L 147.867188 381.953125 L 137.847656 374.675781 L 127.828125 381.953125 L 131.65625 370.175781 L 121.636719 362.898438 L 134.023438 362.898438 L 137.847656 351.121094 " fill-opacity="1" fill-rule="nonzero"/><path fill="#ffffff" d="M 205.660156 351.121094 L 209.488281 362.898438 L 221.871094 362.898438 L 211.851562 370.175781 L 215.679688 381.953125 L 205.660156 374.675781 L 195.640625 381.953125 L 199.46875 370.175781 L 189.449219 362.898438 L 201.832031 362.898438 L 205.660156 351.121094 " fill-opacity="1" fill-rule="nonzero"/><path fill="#ffffff" d="M 273.472656 351.121094 L 277.300781 362.898438 L 289.683594 362.898438 L 279.664062 370.175781 L 283.492188 381.953125 L 273.472656 374.675781 L 263.453125 381.953125 L 267.28125 370.175781 L 257.261719 362.898438 L 269.644531 362.898438 L 273.472656 351.121094 " fill-opacity="1" fill-rule="nonzero"/><path fill="#ffffff" d="M 341.285156 351.121094 L 345.109375 362.898438 L 357.496094 362.898438 L 347.476562 370.175781 L 351.304688 381.953125 L 341.285156 374.675781 L 331.265625 381.953125 L 335.089844 370.175781 L 325.070312 362.898438 L 337.457031 362.898438 L 341.285156 351.121094 " fill-opacity="1" fill-rule="nonzero"/><path fill="#ffffff" d="M 36.089844 205.476562 L 39.917969 217.253906 L 52.300781 217.253906 L 42.28125 224.527344 L 46.109375 236.304688 L 36.089844 229.03125 L 26.070312 236.304688 L 29.898438 224.527344 L 19.878906 217.253906 L 32.261719 217.253906 L 36.089844 205.476562 " fill-opacity="1" fill-rule="nonzero"/><path fill="#ffffff" d="M 103.902344 205.476562 L 107.726562 217.253906 L 120.113281 217.253906 L 110.09375 224.527344 L 113.921875 236.304688 L 103.902344 229.03125 L 93.882812 236.304688 L 97.710938 224.527344 L 87.691406 217.253906 L 100.074219 217.253906 L 103.902344 205.476562 " fill-opacity="1" fill-rule="nonzero"/><path fill="#ffffff" d="M 171.714844 205.476562 L 175.539062 217.253906 L 187.925781 217.253906 L 177.90625 224.527344 L 181.734375 236.304688 L 171.714844 229.03125 L 161.695312 236.304688 L 165.519531 224.527344 L 155.5 217.253906 L 167.886719 217.253906 L 171.714844 205.476562 " fill-opacity="1" fill-rule="nonzero"/><path fill="#ffffff" d="M 239.523438 205.476562 L 243.351562 217.253906 L 255.738281 217.253906 L 245.71875 224.527344 L 249.542969 236.304688 L 239.523438 229.03125 L 229.503906 236.304688 L 233.332031 224.527344 L 223.3125 217.253906 L 235.699219 217.253906 L 239.523438 205.476562 " fill-opacity="1" fill-rule="nonzero"/><path fill="#ffffff" d="M 307.335938 205.476562 L 311.164062 217.253906 L 323.546875 217.253906 L 313.527344 224.527344 L 317.355469 236.304688 L 307.335938 229.03125 L 297.316406 236.304688 L 301.144531 224.527344 L 291.125 217.253906 L 303.507812 217.253906 L 307.335938 205.476562 " fill-opacity="1" fill-rule="nonzero"/><path fill="#ffffff" d="M 375.148438 205.476562 L 378.976562 217.253906 L 391.359375 217.253906 L 381.339844 224.527344 L 385.167969 236.304688 L 375.148438 229.03125 L 365.128906 236.304688 L 368.957031 224.527344 L 358.9375 217.253906 L 371.320312 217.253906 L 375.148438 205.476562 " fill-opacity="1" fill-rule="nonzero"/><path fill="#ffffff" d="M 36.089844 263.644531 L 39.917969 275.417969 L 52.300781 275.417969 L 42.28125 282.695312 L 46.109375 294.472656 L 36.089844 287.195312 L 26.070312 294.472656 L 29.898438 282.695312 L 19.878906 275.417969 L 32.261719 275.417969 L 36.089844 263.644531 " fill-opacity="1" fill-rule="nonzero"/><path fill="#ffffff" d="M 103.902344 263.644531 L 107.726562 275.417969 L 120.113281 275.417969 L 110.09375 282.695312 L 113.921875 294.472656 L 103.902344 287.195312 L 93.882812 294.472656 L 97.710938 282.695312 L 87.691406 275.417969 L 100.074219 275.417969 L 103.902344 263.644531 " fill-opacity="1" fill-rule="nonzero"/><path fill="#ffffff" d="M 171.714844 263.644531 L 175.539062 275.417969 L 187.925781 275.417969 L 177.90625 282.695312 L 181.734375 294.472656 L 171.714844 287.195312 L 161.695312 294.472656 L 165.519531 282.695312 L 155.5 275.417969 L 167.886719 275.417969 L 171.714844 263.644531 " fill-opacity="1" fill-rule="nonzero"/><path fill="#ffffff" d="M 239.523438 263.644531 L 243.351562 275.417969 L 255.738281 275.417969 L 245.71875 282.695312 L 249.542969 294.472656 L 239.523438 287.195312 L 229.503906 294.472656 L 233.332031 282.695312 L 223.3125 275.417969 L 235.699219 275.417969 L 239.523438 263.644531 " fill-opacity="1" fill-rule="nonzero"/><path fill="#ffffff" d="M 307.335938 263.644531 L 311.164062 275.417969 L 323.546875 275.417969 L 313.527344 282.695312 L 317.355469 294.472656 L 307.335938 287.195312 L 297.316406 294.472656 L 301.144531 282.695312 L 291.125 275.417969 L 303.507812 275.417969 L 307.335938 263.644531 " fill-opacity="1" fill-rule="nonzero"/><path fill="#ffffff" d="M 375.148438 263.644531 L 378.976562 275.417969 L 391.359375 275.417969 L 381.339844 282.695312 L 385.167969 294.472656 L 375.148438 287.195312 L 365.128906 294.472656 L 368.957031 282.695312 L 358.9375 275.417969 L 371.320312 275.417969 L 375.148438 263.644531 " fill-opacity="1" fill-rule="nonzero"/><path fill="#ffffff" d="M 36.089844 321.816406 L 39.917969 333.585938 L 52.300781 333.585938 L 42.28125 340.871094 L 46.109375 352.640625 L 36.089844 345.363281 L 26.070312 352.640625 L 29.898438 340.871094 L 19.878906 333.585938 L 32.261719 333.585938 L 36.089844 321.816406 " fill-opacity="1" fill-rule="nonzero"/><path fill="#ffffff" d="M 103.902344 321.816406 L 107.726562 333.585938 L 120.113281 333.585938 L 110.09375 340.871094 L 113.921875 352.640625 L 103.902344 345.363281 L 93.882812 352.640625 L 97.710938 340.871094 L 87.691406 333.585938 L 100.074219 333.585938 L 103.902344 321.816406 " fill-opacity="1" fill-rule="nonzero"/><path fill="#ffffff" d="M 171.714844 321.816406 L 175.539062 333.585938 L 187.925781 333.585938 L 177.90625 340.871094 L 181.734375 352.640625 L 171.714844 345.363281 L 161.695312 352.640625 L 165.519531 340.871094 L 155.5 333.585938 L 167.886719 333.585938 L 171.714844 321.816406 " fill-opacity="1" fill-rule="nonzero"/><path fill="#ffffff" d="M 239.523438 321.816406 L 243.351562 333.585938 L 255.738281 333.585938 L 245.71875 340.871094 L 249.542969 352.640625 L 239.523438 345.363281 L 229.503906 352.640625 L 233.332031 340.871094 L 223.3125 333.585938 L 235.699219 333.585938 L 239.523438 321.816406 " fill-opacity="1" fill-rule="nonzero"/><path fill="#ffffff" d="M 307.335938 321.816406 L 311.164062 333.585938 L 323.546875 333.585938 L 313.527344 340.871094 L 317.355469 352.640625 L 307.335938 345.363281 L 297.316406 352.640625 L 301.144531 340.871094 L 291.125 333.585938 L 303.507812 333.585938 L 307.335938 321.816406 " fill-opacity="1" fill-rule="nonzero"/><path fill="#ffffff" d="M 375.148438 321.816406 L 378.976562 333.585938 L 391.359375 333.585938 L 381.339844 340.871094 L 385.167969 352.640625 L 375.148438 345.363281 L 365.128906 352.640625 L 368.957031 340.871094 L 358.9375 333.585938 L 371.320312 333.585938 L 375.148438 321.816406 " fill-opacity="1" fill-rule="nonzero"/><path fill="#ffffff" d="M 36.089844 379.984375 L 39.917969 391.761719 L 52.300781 391.761719 L 42.28125 399.035156 L 46.109375 410.8125 L 36.089844 403.53125 L 26.070312 410.8125 L 29.898438 399.035156 L 19.878906 391.761719 L 32.261719 391.761719 L 36.089844 379.984375 " fill-opacity="1" fill-rule="nonzero"/><path fill="#ffffff" d="M 103.902344 379.984375 L 107.726562 391.761719 L 120.113281 391.761719 L 110.09375 399.035156 L 113.921875 410.8125 L 103.902344 403.53125 L 93.882812 410.8125 L 97.710938 399.035156 L 87.691406 391.761719 L 100.074219 391.761719 L 103.902344 379.984375 " fill-opacity="1" fill-rule="nonzero"/><path fill="#ffffff" d="M 171.714844 379.984375 L 175.539062 391.761719 L 187.925781 391.761719 L 177.90625 399.035156 L 181.734375 410.8125 L 171.714844 403.53125 L 161.695312 410.8125 L 165.519531 399.035156 L 155.5 391.761719 L 167.886719 391.761719 L 171.714844 379.984375 " fill-opacity="1" fill-rule="nonzero"/><path fill="#ffffff" d="M 239.523438 379.984375 L 243.351562 391.761719 L 255.738281 391.761719 L 245.71875 399.035156 L 249.542969 410.8125 L 239.523438 403.53125 L 229.503906 410.8125 L 233.332031 399.035156 L 223.3125 391.761719 L 235.699219 391.761719 L 239.523438 379.984375 " fill-opacity="1" fill-rule="nonzero"/><path fill="#ffffff" d="M 307.335938 379.984375 L 311.164062 391.761719 L 323.546875 391.761719 L 313.527344 399.035156 L 317.355469 410.8125 L 307.335938 403.53125 L 297.316406 410.8125 L 301.144531 399.035156 L 291.125 391.761719 L 303.507812 391.761719 L 307.335938 379.984375 " fill-opacity="1" fill-rule="nonzero"/><path fill="#ffffff" d="M 375.148438 379.984375 L 378.976562 391.761719 L 391.359375 391.761719 L 381.339844 399.035156 L 385.167969 410.8125 L 375.148438 403.53125 L 365.128906 410.8125 L 368.957031 399.035156 L 358.9375 391.761719 L 371.320312 391.761719 L 375.148438 379.984375 " fill-opacity="1" fill-rule="nonzero"/></svg>